<mxfile host="app.diagrams.net" modified="2023-08-29T20:28:29.155Z" agent="Mozilla/5.0 (X11; Linux x86_64; rv:106.0) Gecko/20100101 Firefox/106.0" etag="WaoUCVze0ojkdwKDiPq1" version="21.6.9" type="github">
  <diagram name="Página-1" id="ZVUjuS-TwMxPAm4DahR5">
    <mxGraphModel dx="1739" dy="474" grid="1" gridSize="10" guides="1" tooltips="1" connect="1" arrows="1" fold="1" page="1" pageScale="1" pageWidth="827" pageHeight="1169" math="0" shadow="0">
      <root>
        <mxCell id="0" />
        <mxCell id="1" parent="0" />
        <mxCell id="y2M8KA7EAdU5h4OUIB-f-1" value="" style="rounded=0;whiteSpace=wrap;html=1;fillColor=#dae8fc;strokeColor=#6c8ebf;fillStyle=hatch;strokeWidth=2;" vertex="1" parent="1">
          <mxGeometry x="40" y="40" width="1080" height="360" as="geometry" />
        </mxCell>
        <mxCell id="y2M8KA7EAdU5h4OUIB-f-2" value="" style="rounded=0;whiteSpace=wrap;html=1;fillColor=#d5e8d4;strokeColor=#82b366;fillStyle=hatch;strokeWidth=2;" vertex="1" parent="1">
          <mxGeometry x="40" y="400" width="1080" height="360" as="geometry" />
        </mxCell>
        <mxCell id="y2M8KA7EAdU5h4OUIB-f-3" value="&lt;font size=&quot;1&quot;&gt;&lt;b&gt;&lt;font style=&quot;font-size: 15px;&quot; face=&quot;Courier New&quot;&gt;SCRUM&lt;/font&gt;&lt;/b&gt;&lt;/font&gt;" style="text;html=1;strokeColor=none;fillColor=none;align=center;verticalAlign=middle;whiteSpace=wrap;rounded=0;" vertex="1" parent="1">
          <mxGeometry x="40" y="40" width="60" height="30" as="geometry" />
        </mxCell>
        <mxCell id="y2M8KA7EAdU5h4OUIB-f-4" value="&lt;font size=&quot;1&quot;&gt;&lt;b&gt;&lt;font style=&quot;font-size: 15px;&quot; face=&quot;Courier New&quot;&gt;DEV&lt;/font&gt;&lt;/b&gt;&lt;/font&gt;" style="text;html=1;strokeColor=none;fillColor=none;align=center;verticalAlign=middle;whiteSpace=wrap;rounded=0;" vertex="1" parent="1">
          <mxGeometry x="40" y="400" width="60" height="30" as="geometry" />
        </mxCell>
        <mxCell id="y2M8KA7EAdU5h4OUIB-f-7" value="" style="rounded=0;whiteSpace=wrap;html=1;fillColor=#f8cecc;strokeColor=#b85450;fillStyle=hatch;strokeWidth=2;" vertex="1" parent="1">
          <mxGeometry x="-560" y="40" width="340" height="150" as="geometry" />
        </mxCell>
        <mxCell id="y2M8KA7EAdU5h4OUIB-f-9" value="&lt;h1&gt;TeamArquitectura&lt;/h1&gt;&lt;p&gt;Equipo de Desarrollo de arquitectura realiza rescate de información y requerimientos del cliente, se realiza diseño de la solución y definición en detalle de la solución.&lt;br&gt;Integrantes: &lt;br&gt;&lt;/p&gt;&lt;p&gt;Arquitecto&lt;br&gt;&lt;span style=&quot;&quot;&gt;&lt;span style=&quot;&quot;&gt;&amp;nbsp;&amp;nbsp;&amp;nbsp;&amp;nbsp;&lt;/span&gt;&lt;/span&gt;&lt;span style=&quot;&quot;&gt;&lt;span style=&quot;&quot;&gt;&amp;nbsp;&amp;nbsp;&amp;nbsp;&amp;nbsp;&lt;/span&gt;&lt;/span&gt;&lt;span style=&quot;&quot;&gt;&lt;span style=&quot;&quot;&gt;&amp;nbsp;&amp;nbsp;&amp;nbsp;&amp;nbsp;&lt;/span&gt;&lt;/span&gt;LiderTécnico&lt;/p&gt;&lt;p&gt;&lt;span style=&quot;white-space: pre;&quot;&gt;&#x9;&lt;/span&gt;LiderDevFront/Back&lt;br&gt;&lt;/p&gt;" style="text;html=1;strokeColor=none;fillColor=none;spacing=5;spacingTop=-20;whiteSpace=wrap;overflow=hidden;rounded=0;" vertex="1" parent="1">
          <mxGeometry x="-535" y="55" width="315" height="195" as="geometry" />
        </mxCell>
      </root>
    </mxGraphModel>
  </diagram>
</mxfile>
